<?xml version="1.0" standalone="no"?>
<!DOCTYPE svg PUBLIC "-//W3C//DTD SVG 20010904//EN"
 "http://www.w3.org/TR/2001/REC-SVG-20010904/DTD/svg10.dtd">
<svg version="1.0" xmlns="http://www.w3.org/2000/svg"
 width="992.000000pt" height="992.000000pt" viewBox="0 0 992.000000 992.000000"
 preserveAspectRatio="xMidYMid meet">
<metadata>
Created by potrace 1.11, written by Peter Selinger 2001-2013
</metadata>
<g transform="translate(0.000000,992.000000) scale(0.100000,-0.100000)"
fill="#000000" stroke="none">
<path d="M131 8694 c-11 -14 -23 -34 -26 -45 -4 -11 -23 -28 -44 -38 -20 -11
-43 -26 -49 -34 -9 -11 -12 -81 -10 -263 l3 -248 35 -22 c44 -28 56 -40 83
-84 13 -21 42 -45 69 -59 44 -21 60 -23 205 -23 141 -1 164 2 209 21 38 16 58
33 79 67 16 24 46 54 67 66 58 33 78 72 89 180 10 99 4 240 -13 298 -13 44
-42 76 -90 101 -20 10 -40 29 -43 41 -4 13 -17 33 -28 46 -20 22 -24 22 -268
22 l-248 0 -20 -26z"/>
<path d="M1565 8678 c-14 -37 -15 -88 -13 -373 3 -359 4 -367 61 -409 l28 -21
1381 -3 c995 -1 1385 -5 1395 -13 18 -16 19 -659 1 -677 -9 -9 -222 -12 -898
-12 l-886 0 -44 -22 c-75 -38 -75 -36 -75 -433 0 -385 -1 -381 62 -422 25 -17
87 -18 927 -21 636 -2 903 -6 913 -13 18 -16 19 -659 1 -677 -9 -9 -115 -12
-414 -12 -415 0 -447 -3 -490 -42 -41 -36 -45 -84 -42 -428 3 -354 5 -362 61
-404 28 -20 40 -21 450 -24 283 -2 425 -6 434 -14 10 -8 13 -164 13 -803 0
-792 6 -958 35 -1029 8 -19 34 -50 58 -70 36 -29 47 -46 61 -97 23 -85 59
-152 98 -183 18 -14 38 -31 45 -36 6 -5 21 -35 33 -67 25 -68 42 -88 91 -114
24 -12 39 -28 44 -46 11 -46 45 -93 86 -119 21 -13 54 -48 73 -78 20 -31 52
-65 73 -77 21 -12 59 -48 85 -80 38 -45 59 -62 99 -76 40 -14 55 -26 70 -55
23 -44 60 -75 108 -88 54 -15 77 -31 103 -70 31 -45 86 -76 173 -95 97 -22
118 -31 136 -64 23 -40 92 -69 214 -92 150 -26 186 -37 215 -64 63 -58 23 -55
837 -55 745 0 748 0 783 21 19 12 45 32 56 45 12 12 44 34 72 48 77 39 112 94
97 153 -3 16 -29 49 -57 75 -44 43 -52 56 -69 124 -23 94 -61 165 -100 188
-36 22 -49 45 -65 123 -19 87 -50 149 -95 185 -40 32 -51 54 -70 133 -18 74
-46 125 -93 170 -32 30 -48 57 -65 107 -22 68 -62 116 -99 120 -9 1 -161 2
-337 2 -339 1 -355 3 -395 51 -22 27 -128 76 -194 90 -76 15 -98 28 -121 71
-11 20 -43 50 -81 73 -44 28 -69 52 -83 79 -12 23 -40 53 -63 69 -32 21 -52
46 -78 98 -26 50 -47 77 -79 100 -39 27 -45 37 -61 102 -28 108 -58 170 -101
206 -72 59 -69 -37 -69 2137 0 2233 8 2056 -95 2155 -32 30 -47 55 -59 100
-14 48 -28 70 -70 110 -29 28 -64 71 -79 97 -15 25 -42 55 -60 67 -44 27 -69
50 -90 84 -21 33 -68 63 -120 78 -28 7 -40 18 -51 42 -20 49 -42 62 -164 102
-94 30 -121 44 -153 76 l-39 39 -1619 0 -1619 0 -17 -42z"/>
<path d="M1275 7159 c-130 -7 -171 -28 -206 -104 -8 -17 -30 -37 -51 -47 -81
-38 -102 -107 -96 -320 3 -120 8 -160 21 -185 18 -33 75 -83 96 -83 7 0 18
-15 26 -32 17 -42 50 -73 99 -93 57 -24 334 -24 391 -1 47 20 84 52 96 83 5
13 31 37 58 53 82 51 94 89 95 284 0 145 -3 166 -23 212 -18 42 -32 57 -71 78
-27 15 -52 35 -55 45 -10 31 -45 70 -78 88 -40 20 -170 30 -302 22z"/>
<path d="M6785 6843 c-64 -13 -106 -37 -142 -81 -21 -25 -40 -56 -42 -67 -2
-11 -6 -658 -8 -1438 l-4 -1418 30 -42 c16 -23 39 -74 50 -112 24 -81 46 -109
107 -135 26 -11 49 -30 58 -47 24 -48 64 -80 114 -93 59 -15 311 -15 394 0 80
15 114 33 163 86 22 23 67 58 99 76 32 18 67 44 77 58 38 51 57 287 40 493
-14 169 -30 206 -124 288 -40 34 -87 79 -105 100 -33 39 -98 69 -177 83 -22 4
-50 17 -62 29 -23 20 -23 25 -23 249 0 170 4 249 16 306 24 116 23 115 107
108 40 -3 77 -5 83 -6 6 0 25 -13 43 -29 34 -31 141 -73 231 -92 66 -14 86
-26 109 -70 10 -20 37 -44 64 -59 60 -33 85 -57 108 -103 11 -20 37 -48 58
-62 41 -25 71 -60 71 -82 0 -34 44 -104 79 -125 20 -12 37 -22 38 -23 6 -3 53
-178 53 -196 0 -37 60 -203 86 -237 21 -26 27 -50 34 -120 11 -124 -1 -241
-29 -281 -32 -44 -68 -141 -87 -230 -24 -120 -52 -215 -63 -219 -39 -13 -78
-53 -95 -97 -32 -86 -40 -97 -79 -122 -53 -33 -79 -79 -72 -123 12 -68 37
-125 69 -160 18 -19 43 -62 55 -95 39 -103 49 -123 76 -142 14 -10 35 -25 46
-33 11 -8 26 -41 35 -73 25 -96 63 -166 105 -194 27 -17 43 -38 54 -69 8 -24
22 -63 30 -86 8 -24 37 -67 64 -96 36 -38 58 -74 81 -135 39 -100 49 -112 125
-147 33 -15 75 -40 94 -54 47 -35 71 -33 113 12 19 20 58 55 88 77 29 22 63
50 74 63 12 13 62 65 112 115 72 73 99 109 127 169 22 47 44 79 56 83 21 6 81
70 81 85 0 5 9 34 20 63 15 41 30 61 59 80 45 30 77 92 95 186 16 81 33 119
58 127 10 3 30 22 43 42 23 36 35 77 71 245 11 57 25 90 49 121 18 24 38 53
44 64 8 14 11 199 11 607 0 578 0 586 -21 628 -12 23 -32 54 -44 69 -24 29
-36 82 -56 258 -15 129 -39 199 -84 238 -43 38 -50 53 -64 132 -24 141 -56
211 -108 231 -13 5 -25 14 -27 21 -51 177 -70 212 -150 273 -15 11 -35 44 -46
74 -23 64 -43 89 -88 108 -24 10 -38 27 -56 66 -24 53 -64 91 -109 102 -16 4
-29 18 -35 34 -16 46 -71 100 -115 113 -27 8 -45 22 -56 41 -31 56 -63 87
-104 99 -60 17 -93 40 -119 79 -27 39 -90 73 -168 90 -86 18 -104 27 -143 74
-41 49 -88 69 -203 85 -126 17 -191 36 -231 69 -73 58 -163 75 -501 91 -196
10 -569 12 -607 3z"/>
<path d="M2225 5559 c-122 -8 -152 -25 -201 -114 -6 -11 -27 -28 -46 -37 -80
-38 -99 -92 -99 -288 0 -196 18 -248 101 -290 22 -11 42 -31 50 -50 17 -41 62
-77 113 -91 67 -18 326 -14 373 6 45 19 83 51 95 82 4 12 25 33 46 46 91 59
107 101 106 294 0 200 -17 249 -100 291 -25 13 -45 33 -53 52 -17 40 -62 77
-108 89 -52 13 -171 17 -277 10z"/>
<path d="M3185 3960 c-118 -10 -169 -36 -196 -102 -7 -16 -27 -37 -48 -47 -84
-43 -102 -95 -102 -291 0 -195 23 -260 108 -295 20 -8 35 -23 38 -38 9 -33 51
-72 100 -93 50 -21 318 -24 381 -4 45 14 98 60 114 100 7 16 22 31 34 34 35 9
81 61 96 108 17 57 17 321 0 374 -15 48 -43 80 -92 105 -20 10 -40 29 -43 41
-12 38 -56 77 -104 92 -57 18 -180 25 -286 16z"/>
</g>
</svg>
